<svg width="101" height="39" viewBox="0 0 101 39" fill="none" xmlns="http://www.w3.org/2000/svg">
<path d="M90.7838 14.9188V34.7936H85.916V14.9188H79.4214V10.7273H97.2912V14.9188H90.7838Z" fill="#14192C"/>
<path d="M57.2989 34.7936H46.8716V10.7273H56.8761C61.7439 10.7273 64.5749 13.3645 64.5749 17.4924C64.5749 20.1678 62.7559 21.8878 61.5005 22.4611C62.9993 23.1363 64.9336 24.6524 64.9336 27.8757C64.9208 32.3602 61.7439 34.7936 57.2989 34.7936ZM56.4918 14.9188H51.7394V20.4608H56.4918C58.5542 20.4608 59.7071 19.3397 59.7071 17.6835C59.7071 16.0272 58.5542 14.9188 56.4918 14.9188ZM56.7993 24.6779H51.7265V30.5893H56.7993C59.0026 30.5893 60.053 29.2389 60.053 27.6081C60.053 25.9774 59.0154 24.6779 56.7993 24.6779Z" fill="#14192C"/>
<path d="M36.0214 24.9199V34.7936H31.192V24.9199L23.6982 10.7273H28.9759L33.6259 20.4226L38.2119 10.7273H43.4896L36.0214 24.9199Z" fill="#14192C"/>
<path d="M13.5528 34.7936H3.12549V10.7273H13.13C17.9978 10.7273 20.8288 13.3645 20.8288 17.4924C20.8288 20.1678 19.0098 21.8878 17.7544 22.4611C19.2532 23.1363 21.1875 24.6524 21.1875 27.8757C21.1875 32.3602 17.9978 34.7936 13.5528 34.7936ZM12.7585 14.9188H8.00607V20.4608H12.7585C14.8209 20.4608 15.9738 19.3397 15.9738 17.6835C15.9738 16.0272 14.8209 14.9188 12.7585 14.9188ZM13.066 24.6779H7.99326V30.5893H13.066C15.2693 30.5893 16.3197 29.2389 16.3197 27.6081C16.3197 25.9774 15.2693 24.6779 13.066 24.6779Z" fill="#14192C"/>
<path d="M70.2495 27.6464V3.58008H75.1173V27.6464H70.2495Z" fill="#F7A600"/>
</svg>
