<svg width="15" height="12" viewBox="0 0 15 12" fill="none" xmlns="http://www.w3.org/2000/svg">
<path d="M6.02547 10.8674H6.03398L6.0361 10.8674C6.16925 10.8658 6.30063 10.8373 6.42196 10.7836C6.54315 10.7301 6.65171 10.6526 6.74085 10.5561C6.74074 10.5563 6.74097 10.556 6.74085 10.5561L14.008 2.78192C14.1003 2.69245 14.1733 2.58567 14.2224 2.46795C14.2721 2.34876 14.2964 2.22088 14.2938 2.09217C14.2911 1.96347 14.2616 1.83665 14.2071 1.71951C14.1524 1.60236 14.074 1.49736 13.9764 1.41096C13.8787 1.32455 13.7642 1.25857 13.6395 1.21707C13.5149 1.17556 13.3829 1.1594 13.2516 1.16959C13.1204 1.17977 12.9927 1.21608 12.8763 1.27629C12.7616 1.33563 12.6604 1.41695 12.5785 1.51536L6.01642 8.53436L2.8651 5.25113C2.68965 5.06832 2.44711 4.96113 2.19085 4.95316C1.93458 4.9452 1.68556 5.03709 1.4986 5.20864C1.31162 5.38019 1.202 5.61733 1.19385 5.86791C1.1857 6.11849 1.27968 6.36196 1.45514 6.54478L5.32036 10.5652C5.32024 10.5651 5.32049 10.5653 5.32036 10.5652C5.41035 10.66 5.51966 10.736 5.64079 10.7879C5.76209 10.8399 5.89304 10.867 6.02547 10.8674Z" fill="white"/>
<path d="M6.74085 10.5561C6.65171 10.6526 6.54315 10.7301 6.42196 10.7836C6.30063 10.8373 6.16925 10.8658 6.0361 10.8674L6.03398 10.8674H6.02547C5.89304 10.867 5.76209 10.8399 5.64079 10.7879C5.51966 10.736 5.41035 10.66 5.32036 10.5652M6.74085 10.5561C6.74097 10.556 6.74074 10.5563 6.74085 10.5561ZM6.74085 10.5561L14.008 2.78192C14.1003 2.69245 14.1733 2.58567 14.2224 2.46795C14.2721 2.34876 14.2964 2.22088 14.2938 2.09217C14.2911 1.96347 14.2616 1.83665 14.2071 1.71951C14.1524 1.60236 14.074 1.49736 13.9764 1.41096C13.8787 1.32455 13.7642 1.25857 13.6395 1.21707C13.5149 1.17556 13.3829 1.1594 13.2516 1.16959C13.1204 1.17977 12.9927 1.21608 12.8763 1.27629C12.7616 1.33563 12.6604 1.41695 12.5785 1.51536L6.01642 8.53436L2.8651 5.25113C2.68965 5.06832 2.44711 4.96113 2.19085 4.95316C1.93458 4.9452 1.68556 5.03709 1.4986 5.20864C1.31162 5.38019 1.202 5.61733 1.19385 5.86791C1.1857 6.11849 1.27968 6.36196 1.45514 6.54478L5.32036 10.5652M5.32036 10.5652C5.32049 10.5653 5.32024 10.5651 5.32036 10.5652Z" stroke="white" stroke-width="0.25"/>
</svg>
