<svg width="175" height="37" viewBox="0 0 175 37" fill="none" xmlns="http://www.w3.org/2000/svg">
<path d="M18.5733 26.6395C23.0868 26.6395 26.7458 22.9951 26.7458 18.4994C26.7458 14.0038 23.0868 10.3594 18.5733 10.3594C14.0598 10.3594 10.4009 14.0038 10.4009 18.4994C10.4009 22.9951 14.0598 26.6395 18.5733 26.6395Z" fill="white"/>
<path d="M18.5731 31.0794C18.3805 31.0726 18.1981 30.9917 18.0643 30.8537C17.9305 30.7157 17.8557 30.5313 17.8557 30.3394C17.8557 30.1475 17.9305 29.9631 18.0643 29.8251C18.1981 29.687 18.3805 29.6061 18.5731 29.5994C21.5287 29.5994 24.3632 28.43 26.4531 26.3483C28.543 24.2667 29.7171 21.4434 29.7171 18.4995C29.7171 15.5556 28.543 12.7323 26.4531 10.6507C24.3632 8.56906 21.5287 7.39961 18.5731 7.39961C18.3805 7.39289 18.1981 7.31199 18.0643 7.17395C17.9305 7.03592 17.8557 6.85153 17.8557 6.65964C17.8557 6.46776 17.9305 6.28337 18.0643 6.14533C18.1981 6.0073 18.3805 5.92639 18.5731 5.91968C25.5375 5.91968 31.203 11.5635 31.203 18.4995C31.203 25.4355 25.5375 31.0794 18.5731 31.0794Z" fill="white"/>
<path d="M18.5731 34.0393C16.5236 34.0448 14.4933 33.6456 12.5997 32.8646C10.7062 32.0837 8.98677 30.9367 7.54102 29.4898C7.40174 29.351 7.32349 29.1629 7.32349 28.9667C7.32349 28.7705 7.40174 28.5823 7.54102 28.4436C7.68031 28.3048 7.86922 28.2269 8.06621 28.2269C8.26319 28.2269 8.4521 28.3048 8.59139 28.4436C9.89937 29.7529 11.455 30.791 13.1683 31.4978C14.8816 32.2046 16.7186 32.566 18.5731 32.5612C26.3565 32.5612 32.6933 26.2541 32.6933 18.5015C32.6933 10.7489 26.3565 4.43989 18.5731 4.43989C18.3805 4.43317 18.1981 4.35227 18.0643 4.21423C17.9305 4.0762 17.8557 3.89181 17.8557 3.69992C17.8557 3.50804 17.9305 3.32365 18.0643 3.18561C18.1981 3.04758 18.3805 2.96668 18.5731 2.95996C27.1764 2.95996 34.1746 9.93132 34.1746 18.4997C34.1746 27.068 27.1764 34.0393 18.5731 34.0393Z" fill="white"/>
<path d="M18.5732 37C8.33187 37 0 28.7002 0 18.4995C0.00674297 18.3078 0.0879661 18.1261 0.226552 17.9928C0.365137 17.8595 0.550261 17.785 0.742908 17.785C0.935555 17.785 1.12068 17.8595 1.25926 17.9928C1.39785 18.1261 1.47907 18.3078 1.48582 18.4995C1.48582 27.8845 9.15084 35.5192 18.5732 35.5192C27.9955 35.5192 35.6605 27.8845 35.6605 18.4995C35.6605 9.11457 27.9955 1.47993 18.5732 1.47993C18.3806 1.47321 18.1982 1.39231 18.0644 1.25427C17.9306 1.11624 17.8558 0.931847 17.8558 0.739964C17.8558 0.54808 17.9306 0.36369 18.0644 0.225654C18.1982 0.0876174 18.3806 0.00671624 18.5732 0C28.8144 0 37.1472 8.29885 37.1472 18.4995C37.1472 28.7002 28.8144 37 18.5732 37Z" fill="white"/>
<path d="M51.7851 27.0042C50.1375 27.0042 48.6696 26.6694 47.3814 25.9997C46.1328 25.3674 45.0851 24.4021 44.3551 23.2114C43.6264 22.0239 43.262 20.675 43.262 19.1645C43.262 17.6365 43.6264 16.2827 44.3551 15.1031C45.089 13.9194 46.1361 12.96 47.3814 12.3301C48.669 11.6605 50.1369 11.3257 51.7851 11.3257C53.3945 11.3257 54.7962 11.6605 55.9902 12.3301C57.1613 12.9759 58.0888 13.9845 58.6321 15.2029L55.194 17.0421C54.7969 16.3271 54.2998 15.7987 53.7028 15.457C53.1108 15.1187 52.4393 14.9431 51.7569 14.9479C51.042 14.937 50.3366 15.1125 49.7108 15.457C49.1067 15.7954 48.6097 16.2955 48.276 16.9006C47.9256 17.523 47.7504 18.2792 47.7504 19.169C47.7504 20.0589 47.9256 20.8135 48.276 21.4329C48.6092 22.0384 49.1063 22.5386 49.7108 22.8766C50.3365 23.2214 51.0419 23.3972 51.7569 23.3865C52.4376 23.3917 53.108 23.221 53.7028 22.8911C54.3004 22.5608 54.7978 22.0279 55.195 21.2923L58.633 23.1597C58.0831 24.3666 57.1565 25.3643 55.9912 26.0043C54.7996 26.6709 53.3976 27.0042 51.7851 27.0042Z" fill="white"/>
<path d="M68.3241 27.0042C66.6953 27.0042 65.251 26.6645 63.9915 25.9852C62.7652 25.3377 61.7351 24.3753 61.008 23.1978C60.2792 22.0188 59.9148 20.6744 59.9148 19.1645C59.9148 17.6365 60.2792 16.2827 61.008 15.1031C61.7332 13.9277 62.7641 12.9696 63.9915 12.3301C65.2504 11.6605 66.6946 11.3257 68.3241 11.3257C69.9335 11.3257 71.3732 11.6605 72.6431 12.3301C73.8713 12.9621 74.903 13.9162 75.6265 15.0895C76.3456 16.2594 76.7052 17.6177 76.7052 19.1645C76.7052 20.6768 76.3453 22.0212 75.6256 23.1978C74.9035 24.3794 73.8722 25.3429 72.6422 25.9852C71.3729 26.6651 69.9335 27.0048 68.3241 27.0042ZM68.3241 23.382C69.0212 23.3925 69.7083 23.2164 70.3137 22.872C70.9059 22.5263 71.3878 22.0208 71.7038 21.4139C72.0446 20.7817 72.2149 20.0316 72.2149 19.1636C72.2149 18.2774 72.0446 17.5212 71.7038 16.8951C71.3836 16.2944 70.9016 15.7944 70.3119 15.4515C69.7025 15.1176 69.0182 14.9425 68.3227 14.9425C67.6272 14.9425 66.943 15.1176 66.3336 15.4515C65.7415 15.7961 65.2551 16.2953 64.927 16.8951C64.576 17.5176 64.4008 18.2738 64.4014 19.1636C64.4014 20.0316 64.5766 20.7817 64.927 21.4139C65.2516 22.0198 65.7385 22.5243 66.3336 22.8711C66.9391 23.2162 67.6266 23.3926 68.3241 23.382Z" fill="white"/>
<path d="M81.8756 9.42945C81.0612 9.42945 80.3983 9.19353 79.8869 8.7217C79.6396 8.50157 79.443 8.23077 79.3106 7.92787C79.1782 7.62497 79.1131 7.29713 79.1199 6.96683C79.1133 6.63657 79.1785 6.30878 79.3108 6.00591C79.4432 5.70304 79.6397 5.43222 79.8869 5.21197C80.3983 4.74135 81.0612 4.50573 81.8756 4.50513C82.69 4.50452 83.3529 4.72683 83.8643 5.17205C84.1122 5.38182 84.3097 5.64428 84.4423 5.94013C84.5748 6.23598 84.6391 6.55767 84.6304 6.88154C84.6304 7.61712 84.3799 8.22687 83.8788 8.71081C83.3778 9.19474 82.71 9.43429 81.8756 9.42945Z" fill="white"/>
<path d="M84.092 11.5518H79.6592V26.7775H84.092V11.5518Z" fill="white"/>
<path d="M102.674 14.254C102.166 13.3053 101.378 12.535 100.416 12.0472C99.4607 11.5633 98.376 11.3213 97.162 11.3213C97.0945 11.3201 97.0269 11.3226 96.9597 11.3286V15.2621C97.4575 15.3815 97.9086 15.6452 98.256 16.0197C98.7963 16.6032 99.0659 17.5124 99.0659 18.7364V26.7739H103.499V18.0568C103.499 16.5142 103.224 15.2466 102.674 14.254Z" fill="white"/>
<path d="M88.3315 18.0568V26.774H92.7644V18.7401C92.7644 17.516 93.0377 16.6068 93.5743 16.0234C93.9218 15.6488 94.3728 15.3852 94.8706 15.2657V11.3323C94.8034 11.3262 94.7358 11.3238 94.6683 11.325C93.4567 11.325 92.3699 11.5655 91.4152 12.0509C90.4528 12.5384 89.6641 13.3087 89.156 14.2576C88.6057 15.2461 88.3309 16.5125 88.3315 18.0568Z" fill="white"/>
<path d="M156.081 14.254C155.573 13.3053 154.784 12.535 153.822 12.0472C152.867 11.5633 151.782 11.3213 150.568 11.3213C150.501 11.3201 150.433 11.3226 150.366 11.3286V15.2621C150.864 15.3815 151.315 15.6452 151.663 16.0197C152.203 16.6032 152.472 17.5124 152.472 18.7364V26.7739H156.905V18.0568C156.905 16.5142 156.63 15.2466 156.081 14.254Z" fill="white"/>
<path d="M141.738 18.0568V26.774H146.171V18.7401C146.171 17.516 146.444 16.6068 146.981 16.0234C147.328 15.6488 147.779 15.3852 148.277 15.2657V11.3323C148.21 11.3262 148.142 11.3238 148.075 11.325C146.863 11.325 145.776 11.5655 144.822 12.0509C143.859 12.5384 143.071 13.3087 142.562 14.2576C142.012 15.2461 141.737 16.5125 141.738 18.0568Z" fill="white"/>
<path d="M112.676 27.0045C111.406 27.0091 110.141 26.852 108.911 26.5372C107.707 26.2257 106.755 25.8343 106.055 25.3631L107.533 22.1936C108.308 22.6598 109.145 23.0167 110.019 23.2543C110.936 23.5225 111.887 23.6608 112.843 23.6654C113.866 23.6654 114.591 23.5426 115.017 23.297C115.442 23.0514 115.655 22.7117 115.654 22.278C115.659 22.11 115.614 21.9444 115.526 21.8012C115.437 21.6581 115.309 21.5435 115.157 21.4714C114.741 21.2656 114.295 21.1271 113.835 21.0612C113.288 20.9669 112.687 20.8725 112.031 20.7781C111.375 20.6838 110.717 20.5564 110.056 20.3961C109.416 20.2465 108.802 20.0035 108.234 19.6748C107.69 19.3593 107.235 18.9112 106.912 18.3727C106.581 17.8282 106.415 17.1208 106.416 16.2503C106.401 15.3315 106.696 14.4343 107.254 13.7024C107.812 12.9668 108.622 12.3867 109.683 11.9621C110.744 11.5374 112.013 11.3257 113.491 11.3269C114.56 11.3296 115.627 11.4433 116.673 11.6663C117.753 11.8925 118.653 12.2225 119.373 12.6562L117.895 15.7985C117.204 15.3838 116.451 15.0826 115.664 14.9065C114.95 14.7503 114.222 14.6697 113.491 14.666C112.506 14.666 111.786 14.7982 111.332 15.0626C110.877 15.3269 110.65 15.6663 110.649 16.0806C110.643 16.2547 110.686 16.4269 110.774 16.5774C110.862 16.7278 110.991 16.8501 111.147 16.9299C111.561 17.1481 112.006 17.3011 112.468 17.3836C113.014 17.4974 113.616 17.5966 114.272 17.6813C114.938 17.7683 115.597 17.8959 116.246 18.0633C116.883 18.2187 117.494 18.4609 118.064 18.7828C118.602 19.092 119.056 19.5282 119.386 20.0531C119.726 20.5915 119.897 21.2941 119.897 22.161C119.909 23.0687 119.608 23.9531 119.044 24.6662C118.476 25.3921 117.656 25.9629 116.584 26.3784C115.513 26.794 114.21 27.0027 112.676 27.0045Z" fill="white"/>
<path d="M126.354 32.4949C125.553 32.4939 124.757 32.3696 123.995 32.1265C123.218 31.8815 122.584 31.5421 122.091 31.1084L123.712 27.9671C124.058 28.2719 124.458 28.5114 124.891 28.6739C125.312 28.8391 125.76 28.9256 126.212 28.9289C126.837 28.9289 127.334 28.7825 127.704 28.4897C128.073 28.1969 128.409 27.7112 128.712 27.0325L129.508 25.1651L129.849 24.6833L135.333 11.5518H139.595L132.69 27.7121C132.197 28.9377 131.634 29.8998 131 30.5985C130.366 31.2971 129.665 31.7877 128.897 32.0702C128.081 32.3616 127.22 32.5054 126.354 32.4949ZM128.967 27.3727L122.148 11.5518H126.718L132.002 24.2877L128.967 27.3727Z" fill="white"/>
<path d="M168.061 27.0042C166.413 27.0042 164.945 26.6694 163.657 25.9997C162.409 25.3674 161.361 24.4021 160.631 23.2114C159.902 22.0239 159.538 20.675 159.538 19.1645C159.538 17.6365 159.902 16.2827 160.631 15.1031C161.365 13.9194 162.412 12.96 163.657 12.3301C164.944 11.6605 166.412 11.3257 168.061 11.3257C169.671 11.3257 171.073 11.6605 172.266 12.3301C173.437 12.9759 174.365 13.9845 174.908 15.2029L171.47 17.0421C171.072 16.3253 170.575 15.7969 169.979 15.457C169.386 15.1189 168.715 14.9433 168.032 14.9479C167.317 14.9372 166.612 15.1127 165.986 15.457C165.382 15.7954 164.885 16.2955 164.551 16.9006C164.201 17.523 164.025 18.2792 164.025 19.169C164.025 20.0589 164.201 20.8135 164.551 21.4329C164.884 22.0384 165.381 22.5386 165.986 22.8766C166.612 23.2211 167.317 23.3969 168.032 23.3865C168.713 23.3915 169.384 23.2208 169.979 22.8911C170.576 22.5608 171.073 22.0279 171.47 21.2923L174.909 23.1551C174.359 24.3621 173.432 25.3598 172.267 25.9997C171.073 26.6694 169.671 27.0042 168.061 27.0042Z" fill="white"/>
</svg>
