<svg width="152" height="40" viewBox="0 0 152 40" fill="none" xmlns="http://www.w3.org/2000/svg">
<path d="M16.1404 23.1945C20.0627 23.1945 23.2424 20.0214 23.2424 16.1071C23.2424 12.1929 20.0627 9.01978 16.1404 9.01978C12.218 9.01978 9.03833 12.1929 9.03833 16.1071C9.03833 20.0214 12.218 23.1945 16.1404 23.1945Z" fill="white"/>
<path d="M16.1405 27.0603C15.9732 27.0544 15.8147 26.984 15.6984 26.8638C15.5821 26.7436 15.5171 26.5831 15.5171 26.416C15.5171 26.2489 15.5821 26.0884 15.6984 25.9682C15.8147 25.848 15.9732 25.7776 16.1405 25.7717C18.709 25.7717 21.1722 24.7535 22.9884 22.9411C24.8046 21.1286 25.8249 18.6705 25.8249 16.1073C25.8249 13.5441 24.8046 11.0859 22.9884 9.27349C21.1722 7.46105 18.709 6.44284 16.1405 6.44284C15.9732 6.43699 15.8147 6.36655 15.6984 6.24636C15.5821 6.12618 15.5171 5.96564 15.5171 5.79857C15.5171 5.6315 15.5821 5.47095 15.6984 5.35077C15.8147 5.23058 15.9732 5.16014 16.1405 5.1543C22.1928 5.1543 27.1161 10.0683 27.1161 16.1073C27.1161 22.1463 22.1928 27.0603 16.1405 27.0603Z" fill="white"/>
<path d="M16.1404 29.637C14.3593 29.6418 12.595 29.2942 10.9494 28.6142C9.30387 27.9343 7.80969 26.9356 6.5533 25.6758C6.43226 25.555 6.36426 25.3912 6.36426 25.2204C6.36426 25.0495 6.43226 24.8857 6.5533 24.7649C6.67435 24.6441 6.83852 24.5763 7.0097 24.5763C7.18088 24.5763 7.34505 24.6441 7.46609 24.7649C8.60276 25.905 9.95463 26.8088 11.4435 27.4242C12.9324 28.0396 14.5288 28.3543 16.1404 28.3501C22.9044 28.3501 28.4112 22.8586 28.4112 16.1085C28.4112 9.35853 22.9044 3.86544 16.1404 3.86544C15.9731 3.8596 15.8146 3.78916 15.6983 3.66897C15.582 3.54879 15.517 3.38824 15.517 3.22117C15.517 3.05411 15.582 2.89356 15.6983 2.77338C15.8146 2.65319 15.9731 2.58275 16.1404 2.5769C23.6169 2.5769 29.6985 8.64671 29.6985 16.107C29.6985 23.5672 23.6169 29.637 16.1404 29.637Z" fill="white"/>
<path d="M16.1405 32.2151C7.24058 32.2151 0 24.9887 0 16.1071C0.00585979 15.9402 0.0764445 15.782 0.196879 15.666C0.317313 15.5499 0.478189 15.485 0.645604 15.485C0.813019 15.485 0.973896 15.5499 1.09433 15.666C1.21476 15.782 1.28535 15.9402 1.29121 16.1071C1.29121 24.2784 7.95229 30.9257 16.1405 30.9257C24.3287 30.9257 30.9898 24.2784 30.9898 16.1071C30.9898 7.93586 24.3287 1.28854 16.1405 1.28854C15.9732 1.28269 15.8147 1.21225 15.6984 1.09207C15.5821 0.971883 15.5171 0.811339 15.5171 0.64427C15.5171 0.477201 15.5821 0.316657 15.6984 0.196472C15.8147 0.0762865 15.9732 0.00584768 16.1405 0C25.0404 0 32.2818 7.22562 32.2818 16.1071C32.2818 24.9887 25.0404 32.2151 16.1405 32.2151Z" fill="white"/>
<path d="M45.0023 23.512C43.5704 23.512 42.2948 23.2205 41.1754 22.6375C40.0903 22.0869 39.1798 21.2464 38.5455 20.2097C37.9121 19.1758 37.5955 18.0013 37.5955 16.6862C37.5955 15.3557 37.9121 14.177 38.5455 13.15C39.1832 12.1194 40.0931 11.284 41.1754 10.7356C42.2943 10.1526 43.5699 9.86108 45.0023 9.86108C46.4009 9.86108 47.619 10.1526 48.6566 10.7356C49.6743 11.2979 50.4803 12.176 50.9525 13.2369L47.9647 14.8383C47.6195 14.2157 47.1876 13.7557 46.6687 13.4581C46.1543 13.1636 45.5708 13.0107 44.9777 13.0149C44.3565 13.0054 43.7435 13.1581 43.1997 13.4581C42.6747 13.7528 42.2427 14.1882 41.9528 14.715C41.6483 15.257 41.496 15.9154 41.496 16.6901C41.496 17.4649 41.6483 18.1219 41.9528 18.6612C42.2423 19.1884 42.6743 19.6239 43.1997 19.9182C43.7434 20.2184 44.3564 20.3715 44.9777 20.3622C45.5693 20.3667 46.1519 20.2181 46.6687 19.9308C47.1881 19.6432 47.6203 19.1792 47.9655 18.5388L50.9532 20.1647C50.4754 21.2155 49.6701 22.0842 48.6574 22.6414C47.6219 23.2218 46.4035 23.512 45.0023 23.512Z" fill="white"/>
<path d="M59.375 23.512C57.9595 23.512 56.7045 23.2163 55.6098 22.6248C54.5442 22.061 53.6491 21.2231 53.0171 20.1978C52.3838 19.1713 52.0671 18.0008 52.0671 16.6862C52.0671 15.3557 52.3838 14.177 53.0171 13.15C53.6474 12.1266 54.5432 11.2924 55.6098 10.7356C56.7039 10.1526 57.959 9.86108 59.375 9.86108C60.7736 9.86108 62.0247 10.1526 63.1283 10.7356C64.1957 11.2858 65.0922 12.1166 65.721 13.1381C66.3459 14.1567 66.6583 15.3394 66.6583 16.6862C66.6583 18.0029 66.3456 19.1734 65.7202 20.1978C65.0927 21.2266 64.1964 22.0656 63.1275 22.6248C62.0245 23.2168 60.7736 23.5125 59.375 23.512ZM59.375 20.3582C59.9808 20.3674 60.5779 20.214 61.104 19.9142C61.6187 19.6132 62.0375 19.1731 62.3121 18.6446C62.6082 18.0943 62.7562 17.4412 62.7562 16.6854C62.7562 15.9138 62.6082 15.2554 62.3121 14.7103C62.0338 14.1872 61.6149 13.7519 61.1024 13.4534C60.5729 13.1626 59.9782 13.0102 59.3738 13.0102C58.7694 13.0102 58.1748 13.1626 57.6452 13.4534C57.1306 13.7534 56.708 14.188 56.4229 14.7103C56.1178 15.2523 55.9656 15.9106 55.9661 16.6854C55.9661 17.4412 56.1184 18.0943 56.4229 18.6446C56.7049 19.1722 57.128 19.6115 57.6452 19.9134C58.1714 20.2139 58.7689 20.3675 59.375 20.3582Z" fill="white"/>
<path d="M71.1518 8.20986C70.444 8.20986 69.868 8.00445 69.4236 7.59364C69.2087 7.40197 69.0378 7.1662 68.9228 6.90247C68.8077 6.63874 68.7512 6.3533 68.757 6.06572C68.7513 5.77816 68.8079 5.49277 68.923 5.22906C69.038 4.96536 69.2088 4.72956 69.4236 4.5378C69.868 4.12804 70.444 3.92289 71.1518 3.92236C71.8595 3.92184 72.4356 4.11539 72.88 4.50304C73.0954 4.68568 73.2671 4.9142 73.3823 5.17179C73.4975 5.42938 73.5534 5.70947 73.5458 5.99145C73.5458 6.63191 73.3281 7.16281 72.8927 7.58416C72.4573 8.00551 71.877 8.21407 71.1518 8.20986Z" fill="white"/>
<path d="M73.0778 10.0576H69.2256V23.3143H73.0778V10.0576Z" fill="white"/>
<path d="M89.2264 12.4106C88.7849 11.5846 88.0998 10.9139 87.2638 10.4892C86.4336 10.0679 85.491 9.8572 84.436 9.8572C84.3774 9.85614 84.3187 9.85825 84.2603 9.86352V13.2883C84.6928 13.3923 85.0848 13.6219 85.3868 13.948C85.8563 14.456 86.0906 15.2476 86.0906 16.3133V23.3114H89.9428V15.7216C89.9428 14.3785 89.704 13.2749 89.2264 12.4106Z" fill="white"/>
<path d="M76.7625 15.7214V23.3112H80.6147V16.3163C80.6147 15.2505 80.8522 14.4589 81.3185 13.9509C81.6205 13.6248 82.0125 13.3952 82.445 13.2912V9.86645C82.3866 9.86118 82.3279 9.85907 82.2693 9.86013C81.2164 9.86013 80.2719 10.0695 79.4422 10.4921C78.6059 10.9166 77.9205 11.5873 77.4789 12.4135C77.0007 13.2741 76.7619 14.3767 76.7625 15.7214Z" fill="white"/>
<path d="M135.638 12.4106C135.196 11.5846 134.511 10.9139 133.675 10.4892C132.845 10.0679 131.902 9.8572 130.847 9.8572C130.789 9.85614 130.73 9.85825 130.672 9.86352V13.2883C131.104 13.3923 131.496 13.6219 131.798 13.948C132.268 14.456 132.502 15.2476 132.502 16.3133V23.3114H136.354V15.7216C136.354 14.3785 136.115 13.2749 135.638 12.4106Z" fill="white"/>
<path d="M123.174 15.7214V23.3112H127.026V16.3163C127.026 15.2505 127.264 14.4589 127.73 13.9509C128.032 13.6248 128.424 13.3952 128.856 13.2912V9.86645C128.798 9.86118 128.739 9.85907 128.681 9.86013C127.628 9.86013 126.683 10.0695 125.854 10.4921C125.017 10.9166 124.332 11.5873 123.89 12.4135C123.412 13.2741 123.173 14.3767 123.174 15.7214Z" fill="white"/>
<path d="M97.9181 23.5117C96.8146 23.5157 95.715 23.3789 94.6462 23.1049C93.6001 22.8336 92.7728 22.4928 92.1643 22.0826L93.4484 19.323C94.1224 19.7288 94.8494 20.0396 95.6088 20.2465C96.4061 20.48 97.2322 20.6004 98.063 20.6044C98.9523 20.6044 99.582 20.4975 99.9519 20.2837C100.322 20.0698 100.507 19.7741 100.506 19.3965C100.51 19.2502 100.471 19.106 100.394 18.9813C100.318 18.8567 100.206 18.7569 100.074 18.6941C99.7124 18.515 99.3246 18.3944 98.9251 18.337C98.4501 18.2549 97.9276 18.1727 97.3576 18.0905C96.7876 18.0084 96.2155 17.8975 95.6413 17.7579C95.0854 17.6277 94.5518 17.416 94.058 17.1299C93.585 16.8552 93.1897 16.4651 92.9093 15.9962C92.6211 15.5221 92.4773 14.9062 92.4778 14.1483C92.4649 13.3483 92.7214 12.5671 93.2061 11.9299C93.6912 11.2894 94.3947 10.7843 95.3167 10.4146C96.2387 10.0449 97.3418 9.86052 98.6259 9.86158C99.5554 9.8639 100.482 9.96293 101.391 10.157C102.33 10.354 103.112 10.6413 103.738 11.019L102.454 13.7548C101.853 13.3938 101.199 13.1316 100.515 12.9782C99.8943 12.8422 99.2612 12.7721 98.6259 12.7689C97.7698 12.7689 97.1444 12.884 96.7496 13.1141C96.3549 13.3443 96.1572 13.6398 96.1567 14.0005C96.1509 14.1521 96.1885 14.3021 96.265 14.433C96.3416 14.564 96.4539 14.6705 96.5889 14.74C96.9489 14.93 97.3361 15.0632 97.7368 15.135C98.2118 15.234 98.7346 15.3204 99.3051 15.3942C99.8833 15.47 100.456 15.581 101.021 15.7268C101.574 15.8621 102.105 16.073 102.6 16.3533C103.068 16.6225 103.462 17.0023 103.749 17.4593C104.045 17.9281 104.193 18.5398 104.193 19.2945C104.204 20.0849 103.942 20.8549 103.452 21.4758C102.958 22.1078 102.245 22.6048 101.314 22.9666C100.383 23.3284 99.2513 23.5101 97.9181 23.5117Z" fill="white"/>
<path d="M109.804 28.2923C109.109 28.2915 108.417 28.1833 107.755 27.9716C107.08 27.7583 106.528 27.4628 106.1 27.0851L107.508 24.3501C107.81 24.6155 108.157 24.824 108.533 24.9655C108.899 25.1094 109.288 25.1846 109.682 25.1875C110.225 25.1875 110.657 25.06 110.978 24.8051C111.298 24.5502 111.591 24.1273 111.854 23.5363L112.546 21.9104L112.842 21.4909L117.608 10.0576H121.311L115.311 24.1281C114.883 25.1951 114.393 26.0328 113.842 26.6411C113.291 27.2495 112.682 27.6766 112.015 27.9226C111.306 28.1763 110.557 28.3015 109.804 28.2923ZM112.076 23.8326L106.149 10.0576H110.121L114.713 21.1465L112.076 23.8326Z" fill="white"/>
<path d="M146.049 23.512C144.617 23.512 143.341 23.2205 142.222 22.6375C141.137 22.0869 140.226 21.2464 139.592 20.2097C138.959 19.1758 138.642 18.0013 138.642 16.6862C138.642 15.3557 138.959 14.177 139.592 13.15C140.23 12.1194 141.14 11.284 142.222 10.7356C143.34 10.1526 144.616 9.86108 146.049 9.86108C147.448 9.86108 148.666 10.1526 149.703 10.7356C150.721 11.2979 151.527 12.176 151.999 13.2369L149.011 14.8383C148.666 14.2142 148.234 13.7541 147.715 13.4581C147.201 13.1638 146.617 13.0109 146.024 13.0149C145.402 13.0055 144.789 13.1583 144.246 13.4581C143.72 13.7528 143.289 14.1882 142.999 14.715C142.694 15.257 142.542 15.9154 142.542 16.6901C142.542 17.4649 142.694 18.1219 142.999 18.6612C143.288 19.1884 143.72 19.6239 144.246 19.9182C144.789 20.2182 145.402 20.3712 146.024 20.3622C146.615 20.3665 147.198 20.2179 147.715 19.9308C148.234 19.6432 148.666 19.1792 149.011 18.5388L152 20.1607C151.522 21.2116 150.717 22.0803 149.704 22.6375C148.666 23.2205 147.448 23.512 146.049 23.512Z" fill="white"/>
<path d="M38.5439 39.2255C38.3657 39.2264 38.1886 39.1964 38.0206 39.137C37.8607 39.0808 37.7152 38.9899 37.5947 38.8708L37.8394 38.4758C37.9336 38.5663 38.0425 38.6403 38.1616 38.6946C38.2844 38.748 38.4171 38.775 38.5511 38.7736C38.7127 38.7772 38.8709 38.7262 38.9999 38.629C39.1261 38.5332 39.2456 38.3644 39.3586 38.1226L39.6111 37.553L39.6705 37.474L41.2712 33.8715H41.7906L39.8407 38.2214C39.7531 38.4386 39.6318 38.6407 39.4813 38.8202C39.366 38.9573 39.2201 39.0656 39.0554 39.1362C38.8922 39.1985 38.7186 39.2288 38.5439 39.2255ZM39.5834 37.8643L37.7887 33.8699H38.3381L39.9214 37.4353L39.5834 37.8643Z" fill="white"/>
<path d="M44.0071 37.7911C43.6529 37.7966 43.3035 37.7083 42.9946 37.5352C42.6993 37.3693 42.4547 37.1266 42.2869 36.8328C42.1167 36.5171 42.0276 36.1642 42.0276 35.8058C42.0276 35.4473 42.1167 35.0944 42.2869 34.7787C42.4544 34.4877 42.6979 34.2474 42.9914 34.0835C43.3019 33.9118 43.6522 33.8248 44.0071 33.8315C44.3664 33.8241 44.7213 33.911 45.0363 34.0835C45.3309 34.2461 45.5747 34.4867 45.7409 34.7787C45.9091 35.0951 45.997 35.4477 45.997 35.8058C45.997 36.1639 45.9091 36.5165 45.7409 36.8328C45.5742 37.1274 45.3293 37.3705 45.0331 37.5352C44.7197 37.7091 44.3658 37.7974 44.0071 37.7911ZM44.0071 37.325C44.2689 37.3299 44.5273 37.2647 44.7553 37.1362C44.9734 37.01 45.1519 36.8256 45.2706 36.6037C45.3945 36.3562 45.459 36.0833 45.459 35.8066C45.459 35.5299 45.3945 35.257 45.2706 35.0094C45.1509 34.7891 44.9725 34.6059 44.7553 34.4801C44.5278 34.3567 44.2731 34.2921 44.0143 34.2921C43.7554 34.2921 43.5007 34.3567 43.2733 34.4801C43.0554 34.6064 42.8759 34.7894 42.7539 35.0094C42.6275 35.2562 42.5615 35.5294 42.5615 35.8066C42.5615 36.0837 42.6275 36.3569 42.7539 36.6037C42.8749 36.8253 43.0545 37.0095 43.2733 37.1362C43.4965 37.2636 43.75 37.3288 44.0071 37.325Z" fill="white"/>
<path d="M48.6764 37.7908C48.3755 37.798 48.0772 37.7344 47.8056 37.6051C47.5611 37.4849 47.3602 37.2916 47.2308 37.0521C47.0855 36.7662 47.0153 36.4482 47.0266 36.1278V33.8699H47.553V36.0669C47.553 36.4809 47.6557 36.7927 47.861 37.0023C48.0663 37.212 48.3542 37.3173 48.7247 37.3184C48.9709 37.3244 49.2146 37.2673 49.4324 37.1524C49.6322 37.0419 49.7928 36.8725 49.8924 36.6674C50.0039 36.4293 50.0581 36.1685 50.0507 35.9058V33.8699H50.5772V37.7537H50.0729V36.6879L50.1521 36.8807C50.0356 37.1584 49.8345 37.3925 49.5773 37.5498C49.3057 37.713 48.9934 37.7965 48.6764 37.7908Z" fill="white"/>
<path d="M52.0488 37.7537V33.87H52.5531V34.9278L52.5017 34.7429C52.5994 34.4601 52.7936 34.2205 53.0503 34.0659C53.3413 33.9022 53.6719 33.8216 54.0058 33.8328V34.3432C53.9863 34.3448 53.9667 34.3448 53.9472 34.3432C53.9275 34.342 53.9076 34.342 53.8879 34.3432C53.477 34.3432 53.1564 34.468 52.9236 34.7169C52.6909 34.9657 52.5753 35.3197 52.5753 35.7779V37.7609L52.0488 37.7537Z" fill="white"/>
<path d="M56.3557 34.306V33.8699H58.7648V34.306H56.3557ZM57.0524 37.7536V33.3816C57.0393 33.0749 57.1487 32.7754 57.3564 32.5489C57.559 32.3383 57.8493 32.2329 58.2272 32.2329C58.3726 32.2325 58.5173 32.2525 58.6571 32.2922C58.7858 32.3264 58.905 32.3896 59.0054 32.477L58.8281 32.872C58.7523 32.8068 58.6639 32.7576 58.5684 32.7275C58.4661 32.6948 58.3592 32.6785 58.2518 32.6793C58.1583 32.6731 58.0646 32.6863 57.9766 32.7181C57.8886 32.75 57.8081 32.7997 57.7403 32.8641C57.6221 32.9874 57.563 33.1699 57.563 33.4116V34.0034L57.5773 34.2475V37.7615L57.0524 37.7536Z" fill="white"/>
<path d="M59.4763 37.7538V33.87H59.9806V34.9278L59.9284 34.743C60.0267 34.4604 60.2207 34.221 60.477 34.0659C60.7683 33.9021 61.0991 33.8214 61.4333 33.8329V34.3432C61.4136 34.3448 61.3937 34.3448 61.3739 34.3432C61.3542 34.342 61.3343 34.342 61.3146 34.3432C60.9045 34.3432 60.5833 34.4678 60.3511 34.7169C60.1189 34.966 60.0028 35.3197 60.0028 35.7779V37.7609L59.4763 37.7538Z" fill="white"/>
<path d="M62.6566 33.0119C62.6057 33.0132 62.5551 33.0039 62.508 32.9848C62.4609 32.9656 62.4182 32.9369 62.3827 32.9005C62.3468 32.8662 62.3183 32.8248 62.2991 32.779C62.2799 32.7332 62.2704 32.6839 62.2711 32.6343C62.2701 32.5852 62.2796 32.5365 62.2988 32.4913C62.3181 32.4461 62.3466 32.4054 62.3827 32.372C62.4187 32.3366 62.4616 32.3088 62.5086 32.2904C62.5557 32.2719 62.606 32.2631 62.6566 32.2646C62.758 32.2619 62.8563 32.2991 62.9305 32.368C62.9666 32.4008 62.9952 32.4408 63.0145 32.4855C63.0337 32.5302 63.0432 32.5785 63.0421 32.6272C63.0435 32.6776 63.0347 32.7278 63.0162 32.7748C62.9977 32.8217 62.9699 32.8645 62.9345 32.9005C62.8986 32.9375 62.8553 32.9666 62.8074 32.9858C62.7596 33.005 62.7082 33.0139 62.6566 33.0119ZM62.3898 37.7521V33.8699H62.9163V37.7537L62.3898 37.7521Z" fill="white"/>
<path d="M66.0369 37.7908C65.6647 37.7989 65.2968 37.7107 64.9689 37.5348C64.6689 37.3714 64.4201 37.1283 64.2501 36.8325C64.0729 36.5195 63.9832 36.1648 63.9904 35.8054C63.9835 35.4495 64.0691 35.0978 64.239 34.7847C64.3989 34.4946 64.6344 34.253 64.9206 34.0855C65.2183 33.9194 65.5535 33.8316 65.8946 33.8303C66.2357 33.8291 66.5715 33.9145 66.8705 34.0784C67.1546 34.2435 67.387 34.4842 67.5418 34.7736C67.7091 35.0915 67.7932 35.4464 67.7864 35.8054C67.7864 35.8299 67.7864 35.856 67.7864 35.8844C67.7864 35.9129 67.7825 35.9405 67.7825 35.9697H64.391V35.5747H67.4967L67.2893 35.7327C67.2938 35.471 67.2314 35.2124 67.108 34.9814C66.9932 34.7686 66.8228 34.5908 66.6148 34.4671C66.3966 34.3411 66.148 34.2771 65.8959 34.2822C65.644 34.2783 65.3957 34.3422 65.1771 34.4671C64.9654 34.5893 64.793 34.769 64.6799 34.9854C64.558 35.2205 64.4968 35.4823 64.5018 35.747V35.826C64.4959 36.0991 64.564 36.3688 64.6989 36.6065C64.8283 36.8297 65.0182 37.0118 65.2468 37.1319C65.4949 37.2608 65.7714 37.3257 66.0511 37.3207C66.2784 37.3226 66.5038 37.2799 66.7145 37.1951C66.9195 37.1109 67.1014 36.979 67.2449 36.8103L67.5418 37.1501C67.3673 37.3584 67.1445 37.5212 66.8926 37.6241C66.6215 37.7365 66.3304 37.7932 66.0369 37.7908Z" fill="white"/>
<path d="M70.847 33.8329C71.1356 33.8268 71.4216 33.8891 71.6814 34.0146C71.9218 34.1365 72.1184 34.3297 72.2443 34.5676C72.3901 34.8562 72.4603 35.1769 72.4485 35.4999V37.7562H71.9221V35.5512C71.9221 35.142 71.8197 34.8325 71.6149 34.6229C71.4101 34.4133 71.1222 34.308 70.7512 34.3069C70.4999 34.3013 70.2511 34.3586 70.0276 34.4736C69.8241 34.5823 69.6585 34.7501 69.5526 34.9547C69.4353 35.1897 69.3779 35.45 69.3856 35.7124V37.7546H68.8591V33.87H69.3634V34.935L69.2843 34.7351C69.4055 34.4566 69.6134 34.2244 69.8772 34.0731C70.1729 33.9072 70.508 33.8242 70.847 33.8329Z" fill="white"/>
<path d="M75.4205 37.7909C75.0718 37.7963 74.7279 37.7093 74.4238 37.5389C74.1326 37.3741 73.8929 37.1321 73.7311 36.8397C73.5651 36.5203 73.4785 36.1658 73.4785 35.806C73.4785 35.4462 73.5651 35.0916 73.7311 34.7722C73.8934 34.4822 74.1332 34.2429 74.4238 34.0809C74.7286 33.9129 75.0723 33.8273 75.4205 33.8329C75.7407 33.8277 76.0565 33.9068 76.3364 34.062C76.6104 34.22 76.8338 34.4523 76.9809 34.7319C77.1511 35.0645 77.2341 35.4347 77.2223 35.8079C77.2332 36.1796 77.1516 36.5482 76.9848 36.8808C76.8398 37.1625 76.6174 37.3971 76.3436 37.5571C76.0624 37.7159 75.7436 37.7967 75.4205 37.7909ZM75.4577 37.3248C75.7184 37.3288 75.9755 37.2636 76.2027 37.136C76.4223 37.0104 76.6022 36.826 76.722 36.6035C76.8459 36.356 76.9104 36.0831 76.9104 35.8064C76.9104 35.5297 76.8459 35.2568 76.722 35.0092C76.6012 34.7883 76.4214 34.6051 76.2027 34.4799C75.9754 34.3525 75.7183 34.2876 75.4577 34.2919C75.2006 34.288 74.9472 34.3529 74.7238 34.4799C74.5063 34.6065 74.3272 34.7894 74.2053 35.0092C74.0783 35.2558 74.0121 35.5291 74.0121 35.8064C74.0121 36.0836 74.0783 36.3569 74.2053 36.6035C74.3262 36.8249 74.5055 37.0091 74.7238 37.136C74.9472 37.2632 75.2006 37.3284 75.4577 37.3248ZM76.9254 37.7538V36.5845L76.9777 35.8008L76.9033 35.0163V32.2646H77.4297V37.7538H76.9254Z" fill="white"/>
<path d="M78.8975 37.7538V32.2646H79.4231V37.7538H78.8975Z" fill="white"/>
<path d="M80.9211 39.2255C80.7431 39.2264 80.5663 39.1965 80.3986 39.137C80.2385 39.081 80.093 38.9901 79.9727 38.8708L80.2173 38.4758C80.3112 38.5667 80.4203 38.6407 80.5395 38.6946C80.662 38.7479 80.7945 38.7748 80.9282 38.7736C81.0899 38.7777 81.2482 38.7267 81.3771 38.629C81.5027 38.5332 81.6225 38.3644 81.7365 38.1226L81.9882 37.553L82.0476 37.474L83.6492 33.8715H84.1677L82.2178 38.2214C82.1303 38.4386 82.009 38.6407 81.8584 38.8202C81.7432 38.9573 81.5973 39.0656 81.4325 39.1362C81.2694 39.1985 81.0957 39.2288 80.9211 39.2255ZM81.9589 37.8643L80.165 33.8699H80.7137L82.297 37.4353L81.9589 37.8643Z" fill="white"/>
<path d="M86.8513 39.1852V33.8699H87.3548V35.0383L87.3034 35.8149L87.377 36.5994V39.1852H86.8513ZM88.8598 37.7876C88.5401 37.7908 88.2253 37.709 87.9478 37.5506C87.6726 37.3919 87.4478 37.1588 87.2994 36.8783C87.1422 36.5412 87.0607 36.1738 87.0607 35.8019C87.0607 35.43 87.1422 35.0626 87.2994 34.7255C87.4451 34.4447 87.6692 34.212 87.9446 34.0555C88.2257 33.9005 88.5426 33.8215 88.8637 33.8264C89.212 33.8209 89.5556 33.9064 89.8604 34.0745C90.1521 34.237 90.3924 34.4779 90.5539 34.7697C90.7194 35.0893 90.8057 35.4438 90.8057 35.8035C90.8057 36.1632 90.7194 36.5176 90.5539 36.8372C90.3908 37.1279 90.1509 37.3683 89.8604 37.5325C89.5558 37.7057 89.2104 37.7949 88.8598 37.7908V37.7876ZM88.8226 37.3215C89.0823 37.3256 89.3384 37.2604 89.5644 37.1327C89.7827 37.0058 89.962 36.8216 90.0829 36.6002C90.2148 36.356 90.281 36.082 90.2753 35.8047C90.281 35.5291 90.2147 35.2568 90.0829 35.0146C89.9607 34.7942 89.7817 34.6104 89.5644 34.4821C89.3369 34.3563 89.0811 34.2902 88.821 34.2902C88.5609 34.2902 88.3051 34.3563 88.0776 34.4821C87.8591 34.6088 87.6797 34.793 87.5591 35.0146C87.429 35.2574 87.3638 35.5295 87.3699 35.8047C87.3639 36.0816 87.429 36.3555 87.5591 36.6002C87.6783 36.8228 87.8581 37.0074 88.0776 37.1327C88.3052 37.2619 88.5632 37.3281 88.8249 37.3247L88.8226 37.3215Z" fill="white"/>
<path d="M93.4634 37.7911C93.1092 37.7966 92.7598 37.7083 92.4509 37.5352C92.1558 37.3691 91.9112 37.1264 91.7431 36.8328C91.573 36.5171 91.4839 36.1642 91.4839 35.8058C91.4839 35.4473 91.573 35.0944 91.7431 34.7787C91.9109 34.4879 92.1544 34.2477 92.4477 34.0835C92.7582 33.9118 93.1085 33.8248 93.4634 33.8315C93.8227 33.8241 94.1776 33.911 94.4926 34.0835C94.7872 34.2461 95.031 34.4867 95.1972 34.7787C95.3654 35.0951 95.4533 35.4477 95.4533 35.8058C95.4533 36.1639 95.3654 36.5165 95.1972 36.8328C95.0305 37.1274 94.7856 37.3705 94.4894 37.5352C94.176 37.7091 93.8221 37.7974 93.4634 37.7911ZM93.4634 37.325C93.7252 37.3299 93.9836 37.2647 94.2116 37.1362C94.4297 37.01 94.6082 36.8256 94.7269 36.6037C94.8514 36.3563 94.9162 36.0834 94.9162 35.8066C94.9162 35.5298 94.8514 35.2568 94.7269 35.0094C94.6072 34.7891 94.4289 34.6059 94.2116 34.4801C93.9841 34.3567 93.7294 34.2921 93.4706 34.2921C93.2117 34.2921 92.957 34.3567 92.7296 34.4801C92.5117 34.6064 92.3322 34.7894 92.2102 35.0094C92.0838 35.2562 92.0178 35.5294 92.0178 35.8066C92.0178 36.0837 92.0838 36.3569 92.2102 36.6037C92.3312 36.8253 92.5108 37.0095 92.7296 37.1362C92.9528 37.2636 93.2063 37.3288 93.4634 37.325Z" fill="white"/>
<path d="M96.5239 37.7537V33.87H97.0282V34.9278L96.9768 34.7429C97.0745 34.4601 97.2687 34.2205 97.5254 34.0659C97.8164 33.9022 98.147 33.8216 98.4809 33.8328V34.3432C98.4614 34.3448 98.4418 34.3448 98.4223 34.3432C98.4026 34.342 98.3827 34.342 98.363 34.3432C97.9521 34.3432 97.6315 34.468 97.3987 34.7169C97.166 34.9657 97.0504 35.3197 97.0504 35.7779V37.7609L96.5239 37.7537Z" fill="white"/>
<path d="M99.0002 34.3063V33.8702H101.412V34.3063H99.0002ZM100.838 37.7911C100.473 37.7911 100.191 37.6923 99.993 37.4948C99.7951 37.2973 99.6964 37.0182 99.6969 36.6574V33.0122H100.225V36.6298C100.212 36.8206 100.275 37.0088 100.399 37.1543C100.465 37.2185 100.543 37.2682 100.629 37.3001C100.715 37.3319 100.807 37.3453 100.899 37.3392C101.11 37.3469 101.316 37.2756 101.477 37.1393L101.663 37.517C101.555 37.613 101.427 37.6837 101.288 37.7239C101.142 37.7685 100.991 37.7912 100.838 37.7911Z" fill="white"/>
<path d="M102.01 34.3064V33.8703H104.421V34.3064H102.01ZM102.706 37.7541V33.3821C102.699 33.2297 102.723 33.0774 102.775 32.934C102.827 32.7905 102.907 32.6588 103.01 32.5462C103.213 32.3356 103.503 32.2302 103.881 32.2302C104.026 32.2299 104.171 32.2498 104.311 32.2895C104.44 32.3239 104.559 32.3871 104.659 32.4743L104.481 32.8694C104.406 32.8041 104.317 32.7549 104.222 32.7248C104.12 32.6921 104.013 32.6759 103.906 32.6766C103.812 32.6704 103.718 32.6836 103.63 32.7154C103.542 32.7473 103.462 32.797 103.394 32.8615C103.275 32.9847 103.216 33.1672 103.216 33.409V34.0007L103.231 34.2448V37.7589L102.706 37.7541Z" fill="white"/>
<path d="M106.65 37.7911C106.296 37.7965 105.946 37.7082 105.638 37.5351C105.343 37.3688 105.098 37.1262 104.93 36.8328C104.759 36.5173 104.67 36.1643 104.67 35.8057C104.67 35.4472 104.759 35.0942 104.93 34.7787C105.098 34.4878 105.341 34.2476 105.635 34.0835C105.945 33.9118 106.295 33.8249 106.65 33.8315C107.009 33.8244 107.364 33.9113 107.679 34.0835C107.973 34.2463 108.217 34.4868 108.383 34.7787C108.551 35.095 108.639 35.4477 108.639 35.8057C108.639 36.1638 108.551 36.5165 108.383 36.8328C108.216 37.1272 107.972 37.3702 107.676 37.5351C107.362 37.709 107.008 37.7973 106.65 37.7911ZM106.65 37.325C106.912 37.3299 107.17 37.2647 107.398 37.1362C107.617 37.01 107.795 36.8256 107.914 36.6037C108.038 36.3563 108.103 36.0833 108.103 35.8065C108.103 35.5297 108.038 35.2568 107.914 35.0094C107.794 34.789 107.616 34.6059 107.398 34.4801C107.171 34.3567 106.916 34.2921 106.657 34.2921C106.398 34.2921 106.143 34.3567 105.916 34.4801C105.698 34.6066 105.519 34.7895 105.397 35.0094C105.271 35.2562 105.205 35.5294 105.205 35.8065C105.205 36.0837 105.271 36.3569 105.397 36.6037C105.518 36.8251 105.697 37.0092 105.916 37.1362C106.139 37.2634 106.392 37.3286 106.65 37.325Z" fill="white"/>
<path d="M109.711 37.7538V32.2646H110.237V37.7538H109.711Z" fill="white"/>
<path d="M111.972 33.0119C111.921 33.0131 111.87 33.0038 111.823 32.9847C111.776 32.9655 111.733 32.9369 111.698 32.9005C111.662 32.8661 111.634 32.8247 111.615 32.7789C111.596 32.7331 111.586 32.6839 111.587 32.6343C111.586 32.5852 111.595 32.5365 111.614 32.4913C111.633 32.4461 111.662 32.4055 111.698 32.372C111.734 32.3367 111.777 32.3089 111.824 32.2905C111.871 32.272 111.921 32.2632 111.972 32.2645C112.073 32.2619 112.172 32.299 112.246 32.368C112.282 32.4008 112.311 32.4409 112.33 32.4856C112.349 32.5303 112.358 32.5786 112.357 32.6272C112.359 32.6776 112.35 32.7278 112.331 32.7748C112.313 32.8217 112.285 32.8645 112.25 32.9005C112.214 32.9375 112.17 32.9666 112.123 32.9858C112.075 33.0049 112.023 33.0139 111.972 33.0119ZM111.705 37.7521V33.8699H112.231V37.7537L111.705 37.7521Z" fill="white"/>
<path d="M115.286 37.7911C114.931 37.7966 114.582 37.7083 114.273 37.5351C113.978 37.3688 113.734 37.1262 113.565 36.8328C113.395 36.5171 113.306 36.1642 113.306 35.8057C113.306 35.4473 113.395 35.0944 113.565 34.7787C113.733 34.4878 113.977 34.2476 114.27 34.0835C114.58 33.9117 114.931 33.8248 115.286 33.8315C115.645 33.8244 116 33.9113 116.315 34.0835C116.609 34.2463 116.853 34.4868 117.019 34.7787C117.187 35.095 117.275 35.4477 117.275 35.8057C117.275 36.1638 117.187 36.5165 117.019 36.8328C116.852 37.1276 116.607 37.3707 116.311 37.5351C115.998 37.7089 115.644 37.7972 115.286 37.7911ZM115.286 37.325C115.548 37.3299 115.806 37.2647 116.034 37.1362C116.252 37.01 116.43 36.8256 116.549 36.6037C116.674 36.3563 116.738 36.0833 116.738 35.8065C116.738 35.5297 116.674 35.2568 116.549 35.0094C116.429 34.789 116.251 34.6059 116.034 34.4801C115.806 34.3567 115.552 34.2921 115.293 34.2921C115.034 34.2921 114.779 34.3567 114.552 34.4801C114.334 34.6066 114.155 34.7895 114.033 35.0094C113.906 35.2562 113.84 35.5294 113.84 35.8065C113.84 36.0837 113.906 36.3569 114.033 36.6037C114.154 36.8251 114.333 37.0093 114.552 37.1362C114.775 37.2636 115.029 37.3288 115.286 37.325Z" fill="white"/>
<path d="M121.386 37.7911C121.126 37.7972 120.866 37.7479 120.626 37.6465C120.427 37.5632 120.256 37.4244 120.133 37.2467C120.018 37.0726 119.958 36.8676 119.963 36.659C119.96 36.4651 120.01 36.2741 120.107 36.1059C120.22 35.9269 120.386 35.7875 120.582 35.707C120.801 35.6059 121.096 35.5553 121.468 35.5553H122.809V35.9503H121.482C121.107 35.9503 120.846 36.0169 120.7 36.1502C120.63 36.212 120.574 36.2883 120.536 36.3739C120.498 36.4594 120.48 36.5521 120.481 36.6455C120.478 36.7486 120.5 36.851 120.545 36.9437C120.591 37.0365 120.658 37.1169 120.741 37.178C120.914 37.3118 121.156 37.3784 121.468 37.3779C121.738 37.3849 122.004 37.3145 122.234 37.1749C122.453 37.0366 122.621 36.8296 122.709 36.5863L122.828 36.9489C122.729 37.2051 122.548 37.4211 122.313 37.5628C122.032 37.7253 121.711 37.8045 121.386 37.7911ZM122.727 37.7539V36.8944L122.705 36.7546V35.3199C122.705 34.9896 122.613 34.7358 122.427 34.5583C122.242 34.3808 121.966 34.292 121.6 34.292C121.355 34.2908 121.111 34.3334 120.881 34.4176C120.67 34.4922 120.473 34.605 120.303 34.7503L120.065 34.3552C120.275 34.1808 120.517 34.0488 120.778 33.9665C121.06 33.8746 121.355 33.8284 121.652 33.8299C122.156 33.8299 122.545 33.9544 122.819 34.2036C123.094 34.4527 123.231 34.8311 123.231 35.3388V37.7508L122.727 37.7539Z" fill="white"/>
<path d="M126.649 33.8329C126.938 33.8269 127.223 33.8892 127.483 34.0146C127.723 34.1363 127.92 34.3295 128.046 34.5676C128.192 34.8562 128.262 35.1769 128.25 35.4999V37.7562H127.724V35.5512C127.724 35.142 127.621 34.8325 127.416 34.6229C127.212 34.4133 126.924 34.308 126.553 34.3069C126.302 34.3011 126.053 34.3584 125.83 34.4736C125.626 34.5824 125.461 34.7501 125.355 34.9547C125.238 35.1897 125.18 35.45 125.188 35.7124V37.7546H124.661V33.87H125.166V34.935L125.087 34.7351C125.208 34.4567 125.416 34.2247 125.679 34.0731C125.975 33.9072 126.31 33.8242 126.649 33.8329Z" fill="white"/>
<path d="M130.771 37.7911C130.51 37.7972 130.251 37.7479 130.011 37.6465C129.811 37.5632 129.64 37.4244 129.518 37.2467C129.402 37.0726 129.343 36.8676 129.347 36.659C129.345 36.4651 129.395 36.2741 129.491 36.1059C129.604 35.9269 129.77 35.7874 129.966 35.707C130.186 35.6058 130.481 35.5553 130.852 35.5553H132.193V35.9503H130.867C130.491 35.9503 130.231 36.0169 130.084 36.1502C130.014 36.212 129.958 36.2883 129.921 36.3739C129.883 36.4594 129.864 36.5521 129.866 36.6455C129.863 36.7486 129.885 36.851 129.93 36.9437C129.975 37.0365 130.042 37.1169 130.126 37.178C130.298 37.3118 130.54 37.3784 130.852 37.3779C131.122 37.3849 131.388 37.3144 131.619 37.1748C131.838 37.0366 132.005 36.8296 132.094 36.5863L132.212 36.9489C132.114 37.2051 131.933 37.4211 131.697 37.5627C131.416 37.7252 131.095 37.8044 130.771 37.7911ZM132.112 37.7539V36.8944L132.09 36.7545V35.3198C132.09 34.9896 131.997 34.7358 131.812 34.5583C131.627 34.3808 131.351 34.292 130.985 34.292C130.74 34.2908 130.497 34.3334 130.267 34.4176C130.055 34.4922 129.859 34.6049 129.688 34.7502L129.45 34.3552C129.66 34.1808 129.902 34.0488 130.163 33.9665C130.444 33.875 130.738 33.8288 131.034 33.8299C131.538 33.8299 131.927 33.9544 132.201 34.2035C132.476 34.4527 132.613 34.8311 132.613 35.3388V37.7508L132.112 37.7539Z" fill="white"/>
<path d="M134.047 37.7538V32.2646H134.573V37.7538H134.047Z" fill="white"/>
<path d="M136.07 39.2255C135.892 39.2264 135.715 39.1965 135.547 39.137C135.388 39.0808 135.242 38.9899 135.122 38.8708L135.366 38.4758C135.46 38.5667 135.569 38.6407 135.688 38.6946C135.811 38.748 135.944 38.775 136.078 38.7736C136.239 38.7775 136.397 38.7265 136.526 38.629C136.684 38.4904 136.807 38.317 136.885 38.1226L137.138 37.553L137.197 37.474L138.798 33.8715H139.317L137.368 38.2214C137.28 38.4384 137.158 38.6405 137.008 38.8202C136.893 38.9574 136.746 39.0656 136.581 39.1362C136.418 39.1986 136.245 39.2289 136.07 39.2255ZM137.108 37.8643L135.314 33.8699H135.863L137.446 37.4353L137.108 37.8643Z" fill="white"/>
<path d="M139.562 34.3063V33.8702H141.971V34.3063H139.562ZM141.4 37.7911C141.035 37.7911 140.753 37.6923 140.555 37.4948C140.357 37.2973 140.258 37.0182 140.259 36.6574V33.0122H140.785V36.6298C140.772 36.8205 140.835 37.0086 140.959 37.1543C141.024 37.2185 141.103 37.2681 141.189 37.2999C141.275 37.3318 141.367 37.3452 141.459 37.3392C141.67 37.3469 141.877 37.2756 142.038 37.1393L142.223 37.517C142.115 37.613 141.987 37.6837 141.849 37.7239C141.703 37.7684 141.552 37.7911 141.4 37.7911Z" fill="white"/>
<path d="M143.45 33.0119C143.399 33.0131 143.348 33.0038 143.301 32.9846C143.254 32.9655 143.211 32.9368 143.175 32.9005C143.14 32.866 143.111 32.8246 143.092 32.7788C143.073 32.733 143.064 32.6838 143.065 32.6343C143.064 32.5853 143.073 32.5366 143.092 32.4914C143.111 32.4463 143.14 32.4056 143.175 32.372C143.212 32.3366 143.255 32.3089 143.302 32.2904C143.349 32.272 143.399 32.2632 143.45 32.2645C143.551 32.2619 143.65 32.2991 143.724 32.368C143.76 32.4008 143.788 32.4409 143.808 32.4856C143.827 32.5303 143.836 32.5786 143.835 32.6272C143.836 32.6775 143.827 32.7277 143.809 32.7746C143.791 32.8215 143.763 32.8643 143.728 32.9005C143.692 32.9374 143.649 32.9664 143.601 32.9855C143.553 33.0047 143.502 33.0137 143.45 33.0119ZM143.183 37.7521V33.8699H143.71V37.7537L143.183 37.7521Z" fill="white"/>
<path d="M146.789 37.791C146.428 37.797 146.071 37.7087 145.755 37.535C145.457 37.3705 145.211 37.1275 145.042 36.8327C144.871 36.5172 144.782 36.1642 144.782 35.8056C144.782 35.4471 144.871 35.0941 145.042 34.7786C145.211 34.4858 145.457 34.2452 145.755 34.0834C146.072 33.912 146.428 33.8252 146.789 33.8314C147.099 33.8267 147.406 33.8926 147.686 34.0241C147.951 34.1484 148.171 34.3494 148.32 34.6008L147.924 34.8671C147.801 34.6792 147.63 34.5284 147.427 34.431C147.207 34.3308 146.967 34.283 146.725 34.2912C146.483 34.2995 146.247 34.3635 146.034 34.4784C145.813 34.6031 145.631 34.7862 145.508 35.0077C145.381 35.2549 145.314 35.5287 145.314 35.8064C145.314 36.0842 145.381 36.358 145.508 36.6052C145.63 36.827 145.813 37.0103 146.034 37.1345C146.247 37.2497 146.483 37.314 146.725 37.3224C146.967 37.3308 147.207 37.2829 147.427 37.1827C147.628 37.0862 147.799 36.9382 147.924 36.7537L148.32 37.0199C148.169 37.2684 147.949 37.4675 147.686 37.5927C147.407 37.7272 147.1 37.7951 146.789 37.791Z" fill="white"/>
<path d="M150.391 37.791C150.082 37.7928 149.774 37.7464 149.479 37.6535C149.234 37.5841 149.005 37.4674 148.805 37.3098L149.042 36.8951C149.228 37.0278 149.433 37.1314 149.65 37.2024C149.9 37.2891 150.164 37.3329 150.428 37.3319C150.798 37.3319 151.065 37.274 151.229 37.1581C151.305 37.108 151.368 37.0393 151.411 36.9585C151.453 36.8777 151.475 36.7874 151.473 36.696C151.477 36.6333 151.466 36.5707 151.442 36.5125C151.419 36.4544 151.383 36.4021 151.336 36.3594C151.232 36.2715 151.109 36.2083 150.977 36.1746C150.814 36.1292 150.648 36.0933 150.481 36.0671C150.298 36.0371 150.116 36.0031 149.935 35.9636C149.764 35.9275 149.599 35.8691 149.443 35.7898C149.298 35.7162 149.174 35.6075 149.083 35.4738C148.984 35.3141 148.936 35.1285 148.946 34.9413C148.943 34.7374 149.005 34.5379 149.124 34.3717C149.257 34.1932 149.438 34.0561 149.646 33.9767C149.914 33.8734 150.2 33.8243 150.488 33.8321C150.743 33.8324 150.997 33.8661 151.244 33.9324C151.464 33.9857 151.675 34.0742 151.867 34.1947L151.636 34.6166C151.468 34.4999 151.281 34.4135 151.082 34.3614C150.889 34.3096 150.69 34.283 150.489 34.2824C150.139 34.2824 149.881 34.343 149.714 34.4641C149.638 34.5147 149.575 34.5834 149.532 34.6641C149.489 34.7447 149.466 34.8348 149.467 34.9263C149.463 34.9907 149.473 35.0551 149.497 35.1151C149.521 35.1751 149.557 35.2293 149.603 35.2739C149.709 35.3653 149.833 35.4322 149.967 35.4698C150.129 35.5195 150.295 35.5578 150.463 35.5844C150.644 35.6144 150.824 35.6502 151.005 35.6918C151.176 35.7308 151.342 35.7878 151.501 35.8617C151.647 35.9295 151.772 36.0341 151.864 36.1651C151.962 36.3184 152.01 36.498 152.001 36.6794C152.006 36.8909 151.94 37.098 151.812 37.2672C151.67 37.4449 151.479 37.5783 151.264 37.6519C150.984 37.7509 150.688 37.7981 150.391 37.791Z" fill="white"/>
</svg>
