<svg width="20" height="17" viewBox="0 0 20 17" fill="none" xmlns="http://www.w3.org/2000/svg">
<path fill-rule="evenodd" clip-rule="evenodd" d="M0.833333 0.831299C1.29357 0.831299 1.66667 1.20439 1.66667 1.66463V5.8313H5.83333C6.29357 5.8313 6.66667 6.20439 6.66667 6.66463C6.66667 7.12487 6.29357 7.49797 5.83333 7.49797H0.833333C0.373096 7.49797 0 7.12487 0 6.66463V1.66463C0 1.20439 0.373096 0.831299 0.833333 0.831299Z" fill="#1F43FF"/>
<path fill-rule="evenodd" clip-rule="evenodd" d="M13.3335 9.99788C13.3335 9.53765 13.7066 9.16455 14.1668 9.16455H19.1668C19.6271 9.16455 20.0002 9.53765 20.0002 9.99788V14.9979C20.0002 15.4581 19.6271 15.8312 19.1668 15.8312C18.7066 15.8312 18.3335 15.4581 18.3335 14.9979V10.8312H14.1668C13.7066 10.8312 13.3335 10.4581 13.3335 9.99788Z" fill="#1F43FF"/>
<path fill-rule="evenodd" clip-rule="evenodd" d="M7.68913 0.328156C9.04138 -0.0629858 10.4707 -0.105199 11.8437 0.205456C13.2166 0.516111 14.4886 1.16951 15.5407 2.10468C16.5929 3.03985 17.391 4.22631 17.8606 5.55337C18.0141 5.98724 17.7869 6.46343 17.353 6.61696C16.9191 6.77049 16.4429 6.54323 16.2894 6.10936C15.9137 5.04772 15.2752 4.09855 14.4335 3.35041C13.5918 2.60227 12.5742 2.07956 11.4759 1.83103C10.3775 1.58251 9.23403 1.61628 8.15223 1.92919C7.07042 2.2421 6.08551 2.82396 5.28941 3.62047C5.28325 3.62663 5.277 3.63269 5.27065 3.63866L1.40398 7.27199C1.06858 7.58715 0.541201 7.57074 0.226042 7.23534C-0.089118 6.89994 -0.0727107 6.37256 0.262689 6.0574L4.12008 2.43278C5.11355 1.442 6.34116 0.718055 7.68913 0.328156ZM19.774 9.42738C20.0891 9.76278 20.0727 10.2902 19.7373 10.6053L15.8799 14.23C14.8864 15.2207 13.6588 15.9447 12.3109 16.3346C10.9586 16.7257 9.52932 16.7679 8.15634 16.4573C6.78335 16.1466 5.51144 15.4932 4.45928 14.558C3.40712 13.6229 2.60901 12.4364 2.13941 11.1094C1.98587 10.6755 2.21313 10.1993 2.64701 10.0458C3.08088 9.89223 3.55707 10.1195 3.7106 10.5534C4.08628 11.615 4.72477 12.5642 5.5665 13.3123C6.40823 14.0605 7.42576 14.5832 8.52414 14.8317C9.62253 15.0802 10.766 15.0464 11.8478 14.7335C12.9296 14.4206 13.9145 13.8388 14.7106 13.0423C14.7143 13.0386 14.718 13.0349 14.7218 13.0312C14.7243 13.0288 14.7268 13.0264 14.7294 13.0241L18.596 9.39073C18.9314 9.07557 19.4588 9.09198 19.774 9.42738Z" fill="#1F43FF"/>
</svg>
