<svg width="48" height="48" viewBox="0 0 48 48" fill="none" xmlns="http://www.w3.org/2000/svg">
<path d="M24 0C17.6348 0 11.5303 2.52855 7.02942 7.02942C2.52855 11.5303 0 17.6348 0 24C0 30.3652 2.52855 36.4697 7.02942 40.9706C11.5303 45.4715 17.6348 48 24 48C30.3652 48 36.4697 45.4715 40.9706 40.9706C45.4715 36.4697 48 30.3652 48 24C48 17.6348 45.4715 11.5303 40.9706 7.02942C36.4697 2.52855 30.3652 0 24 0ZM24 3C29.5695 3 34.911 5.21248 38.8493 9.15074C42.7876 13.089 45 18.4305 45 24C45 29.916 42.468 35.184 38.532 39C37.203 33.819 32.607 30 27 30H21C15.393 30 10.8 33.819 9.46802 39C5.53202 35.184 3 29.916 3 24C3 18.4305 5.21243 13.089 9.1507 9.15074C13.089 5.21248 18.4305 3 24 3Z" fill="white"/>
<path d="M24 9.75C18.615 9.75 14.25 13.95 14.25 19.125C14.25 24.303 18.615 28.5 24 28.5C29.385 28.5 33.75 24.3 33.75 19.125C33.75 13.947 29.385 9.75 24 9.75Z" fill="white"/>
</svg>
